<?xml version="1.0" standalone="no"?><!DOCTYPE svg PUBLIC "-//W3C//DTD SVG 1.1//EN" "http://www.w3.org/Graphics/SVG/1.1/DTD/svg11.dtd"><svg class="icon" width="1024px" height="1024.00px" viewBox="0 0 1024 1024" version="1.1" xmlns="http://www.w3.org/2000/svg"><path d="M911.7696 594.3296a267.8784 267.8784 0 0 1-17.2032 21.2992l-368.64 368.64-368.64-368.64a267.8784 267.8784 0 0 1-17.2032-21.2992 271.9744 271.9744 0 0 1 384.6144-381.3376 271.9744 271.9744 0 0 1 384.6144 381.3376z" fill="#0000FF" /><path d="M872.448 555.008a267.8784 267.8784 0 0 1-17.2032 21.2992l-368.64 368.64-368.64-368.64a267.8784 267.8784 0 0 1-17.2032-21.2992 271.9744 271.9744 0 0 1 384.6144-381.3376 271.9744 271.9744 0 0 1 384.6144 381.3376z" fill="#FF0000" /></svg>