<?xml version="1.0" standalone="no"?><!DOCTYPE svg PUBLIC "-//W3C//DTD SVG 1.1//EN" "http://www.w3.org/Graphics/SVG/1.1/DTD/svg11.dtd"><svg class="icon" width="1024px" height="1024.00px" viewBox="0 0 1024 1024" version="1.1" xmlns="http://www.w3.org/2000/svg"><path fill="#000000" d="M756.258722 512.200706c0-134.874167-109.183849-244.058016-244.058016-244.058017S267.741278 377.326539 267.741278 512.200706s109.183849 244.058016 244.058016 244.058016 244.459428-109.183849 244.459428-244.058016z m-100.352803 0c0-79.47942-64.225794-143.705214-143.705213-143.705214s-143.705214 64.225794-143.705214 143.705214 64.225794 143.705214 143.705214 143.705213 143.705214-64.627205 143.705213-143.705213z m-143.705213-368.094081c368.495492 0 501.764014 368.094081 501.764014 368.094081s-133.669933 368.094081-501.764014 368.09408-501.764014-368.094081-501.764015-368.09408 133.268522-368.094081 501.764015-368.094081z" /></svg>