<?xml version="1.0" standalone="no"?><!DOCTYPE svg PUBLIC "-//W3C//DTD SVG 1.1//EN" "http://www.w3.org/Graphics/SVG/1.1/DTD/svg11.dtd"><svg class="icon" width="1024px" height="1024.00px" viewBox="0 0 1024 1024" version="1.1" xmlns="http://www.w3.org/2000/svg"><path fill="#ffffff" d="M588.8 473.6l-9.6-6.4c-9.6-9.6-25.6-6.4-32 3.2-9.6 9.6-6.4 25.6 3.2 32l9.6 6.4c19.2 16 19.2 41.6 3.2 64l-12.8 16c-9.6 9.6-6.4 25.6 3.2 32 9.6 9.6 25.6 6.4 32-3.2l12.8-16c32-38.4 28.8-96-9.6-128zM448 720L307.2 896c-16 19.2-44.8 22.4-60.8 9.6l-137.6-112c-19.2-16-19.2-41.6-3.2-64l265.6-326.4c16-19.2 44.8-22.4 60.8-9.6l12.8 9.6c9.6 9.6 25.6 6.4 32-3.2 9.6-9.6 6.4-25.6-3.2-32l-12.8-9.6c-38.4-32-96-22.4-128 16L67.2 700.8c-32 38.4-28.8 96 9.6 128l137.6 112c38.4 32 96 22.4 128-16l140.8-176c9.6-9.6 6.4-25.6-3.2-32-9.6-9.6-22.4-6.4-32 3.2z m496-444.8L816 169.6c-41.6-32-99.2-25.6-131.2 12.8L422.4 508.8c-32 41.6-25.6 99.2 12.8 131.2l128 105.6c41.6 32 99.2 25.6 131.2-12.8l262.4-326.4c35.2-41.6 28.8-99.2-12.8-131.2z m-22.4 102.4L659.2 704c-16 19.2-44.8 22.4-67.2 6.4L464 604.8c-19.2-16-22.4-44.8-6.4-67.2L720 211.2c16-19.2 44.8-22.4 67.2-6.4l128 105.6c19.2 16 22.4 44.8 6.4 67.2z"  /></svg>