<?xml version="1.0" standalone="no"?><!DOCTYPE svg PUBLIC "-//W3C//DTD SVG 1.1//EN" "http://www.w3.org/Graphics/SVG/1.1/DTD/svg11.dtd"><svg class="icon" width="1024px" height="1024.00px" viewBox="0 0 1024 1024" version="1.1" xmlns="http://www.w3.org/2000/svg"><path fill="#ffffff" d="M39.384615 0a39.384615 39.384615 0 0 0-39.384615 39.384615v945.23077a39.384615 39.384615 0 0 0 78.769231 0V39.384615A39.384615 39.384615 0 0 0 39.384615 0z"  /><path fill="#ffffff" d="M984.615385 945.230769H39.384615a39.384615 39.384615 0 0 0 0 78.769231h945.23077a39.384615 39.384615 0 0 0 0-78.769231z"  /><path fill="#ffffff" d="M39.384615 0a39.384615 39.384615 0 0 0-39.384615 39.384615v945.23077a39.384615 39.384615 0 0 0 78.769231 0V39.384615A39.384615 39.384615 0 0 0 39.384615 0zM419.761231 328.546462a39.542154 39.542154 0 0 0-27.884308 11.500307L169.117538 562.806154a39.384615 39.384615 0 0 0 55.689847 55.847384l222.759384-222.759384a39.384615 39.384615 0 0 0-27.805538-67.347692z"  /><path fill="#ffffff" d="M420.076308 328.546462a39.384615 39.384615 0 0 0-27.884308 67.190153l222.759385 222.759385a39.384615 39.384615 0 1 0 55.847384-55.532308L448.039385 340.204308a39.384615 39.384615 0 0 0-27.963077-11.657846z"  /><path fill="#ffffff" d="M920.339692 272.856615a39.542154 39.542154 0 0 0-27.884307 11.500308L613.927385 562.884923a39.384615 39.384615 0 0 0 55.847384 55.768615l278.528-278.528a39.384615 39.384615 0 0 0-27.963077-67.268923z"  /></svg>