<?xml version="1.0" standalone="no"?><!DOCTYPE svg PUBLIC "-//W3C//DTD SVG 1.1//EN" "http://www.w3.org/Graphics/SVG/1.1/DTD/svg11.dtd"><svg class="icon" width="1024px" height="1024.00px" viewBox="0 0 1024 1024" version="1.1" xmlns="http://www.w3.org/2000/svg"><path fill="#000000" d="M512 512c116.3 0 155.2-43.7 167-149.6 3.2-28.6 3.8-53.5 3.6-104.7 0-9.5 0-9.5-0.1-18.8 0-83.5-75.1-153.6-170.6-153.6s-170.6 70.1-170.6 153.6c0 9.4 0 9.4-0.1 18.8-0.2 51.2 0.4 76 3.6 104.7C356.8 468.3 395.7 512 512 512z m0 85.3c-269.3 0-255.9-226.4-255.9-358.4S370.7 0 512 0s255.9 107 255.9 238.9S781.3 597.3 512 597.3zM164.5 903.8h695c-8.9-97.4-55.4-185.8-128.3-246.9-15.6-13.1-16.3-34.9-1.6-48.7 14.7-13.9 39.2-14.5 54.8-1.4 97.1 81.4 154.2 202 154.2 331.6v34.5H85.3v-34.5c0-129.6 57.1-250.2 154.2-331.6 15.6-13.1 40.1-12.4 54.8 1.4 14.7 13.9 14 35.7-1.6 48.7-72.8 61.1-119.3 149.5-128.2 246.9z" /></svg>